<?xml version="1.0" standalone="no"?>
<!DOCTYPE svg PUBLIC "-//W3C//DTD SVG 1.1//EN" "http://www.w3.org/Graphics/SVG/1.1/DTD/svg11.dtd">
<svg xmlns="http://www.w3.org/2000/svg" width="164" height="185" viewBox="0 0 164 185" fill="none">
<g clip-path="url(#clip0_491_277)">
<path d="M74.5 88.5H71V118H74.5V88.5Z" fill="#405D42"/>
<path d="M24 84.5C32.8333 86.3333 53.6 95.6 66 118C54.3333 117.333 29.6 109.7 24 84.5Z" fill="#405D42"/>
<path d="M79.5 118C84.5 108.667 99.8 88.9 121 84.5C120.167 93.3333 110.7 112.4 79.5 118Z" fill="#405D42"/>
<path d="M74.5 88.5H71V118H74.5V88.5Z" stroke="#416140" stroke-width="1.5"/>
<path d="M24 84.5C32.8333 86.3333 53.6 95.6 66 118C54.3333 117.333 29.6 109.7 24 84.5Z" stroke="#416140" stroke-width="1.5"/>
<path d="M79.5 118C84.5 108.667 99.8 88.9 121 84.5C120.167 93.3333 110.7 112.4 79.5 118Z" stroke="#416140" stroke-width="1.5"/>
<path d="M17 53.5C29 81.5 55 87.1667 66.5 86.5C39.7 74.5 30 51.8333 28.5 42L17 53.5Z" fill="#E37B41"/>
<path d="M115 44C107.8 71.2 88.6667 83.6667 80 86.5C111.2 84.9 125 64.1667 128 54C127.6 50.4 119.167 45.8333 115 44Z" fill="#E37B41"/>
<path d="M50 16C40 48.4 54.1667 71.1667 62.5 78.5C34.5 72.1 31.8333 34.1667 34 16H50Z" fill="#E37B41"/>
<path d="M96 17C105.6 49 90 71.3333 81 78.5C114.2 70.1 114.5 33.3333 110.5 16L96 17Z" fill="#E37B41"/>
<path d="M72.5 16C54.9 22.4 59.5 55.6667 64 71.5C53.6 63.5 49.6667 45.8333 49 38C51.4 16.8 65.6667 4.5 72.5 1C92.9 15.8 96.6667 31.8333 96 38C95.7658 54 86.5691 67 82 71.5C91.6 30.7 79.6667 17.5 72.5 16Z" fill="#E37B41"/>
<path d="M72.5 82C65 67.6667 54.5 35.2 72.5 20C80.6667 26.5 92.1 48 72.5 82Z" fill="#E37B41"/>
<path d="M17 53.5C29 81.5 55 87.1667 66.5 86.5C39.7 74.5 30 51.8333 28.5 42L17 53.5Z" stroke="#E37B41" stroke-width="1.5"/>
<path d="M115 44C107.8 71.2 88.6667 83.6667 80 86.5C111.2 84.9 125 64.1667 128 54C127.6 50.4 119.167 45.8333 115 44Z" stroke="#E37B41" stroke-width="1.5"/>
<path d="M50 16C40 48.4 54.1667 71.1667 62.5 78.5C34.5 72.1 31.8333 34.1667 34 16H50Z" stroke="#E37B41" stroke-width="1.5"/>
<path d="M96 17C105.6 49 90 71.3333 81 78.5C114.2 70.1 114.5 33.3333 110.5 16L96 17Z" stroke="#E37B41" stroke-width="1.5"/>
<path d="M72.5 16C54.9 22.4 59.5 55.6667 64 71.5C53.6 63.5 49.6667 45.8333 49 38C51.4 16.8 65.6667 4.5 72.5 1C92.9 15.8 96.6667 31.8333 96 38C95.7658 54 86.5691 67 82 71.5C91.6 30.7 79.6667 17.5 72.5 16Z" stroke="#E37B41" stroke-width="1.5"/>
<path d="M72.5 82C65 67.6667 54.5 35.2 72.5 20C80.6667 26.5 92.1 48 72.5 82Z" stroke="#E37B41" stroke-width="1.5"/>
</g>
<path d="M14.7664 142.24C15.6197 142.24 16.3797 142.44 17.0464 142.84C17.7131 143.227 18.2331 143.767 18.6064 144.46C18.9797 145.14 19.1664 145.907 19.1664 146.76V147.02C19.1664 147.873 18.9797 148.647 18.6064 149.34C18.2331 150.033 17.7131 150.58 17.0464 150.98C16.3797 151.367 15.6197 151.56 14.7664 151.56H11.4664V156H7.04641V142.24H14.7664ZM11.4664 148.34H13.2864C13.7531 148.34 14.0997 148.22 14.3264 147.98C14.5664 147.74 14.6864 147.413 14.6864 147V146.84C14.6864 146.413 14.5664 146.087 14.3264 145.86C14.0997 145.62 13.7531 145.5 13.2864 145.5H11.4664V148.34ZM38.02 145.18C38.3267 145.18 38.6 145.22 38.84 145.3C39.08 145.367 39.2 145.407 39.2 145.42V148.76H37.92C37.0933 148.76 36.4933 148.973 36.12 149.4C35.76 149.827 35.58 150.46 35.58 151.3V156H31.6V145.44H34.86L35.12 147.04C35.36 146.427 35.74 145.967 36.26 145.66C36.78 145.34 37.3667 145.18 38.02 145.18ZM56.6592 145.2C58.5126 145.2 59.9659 145.673 61.0192 146.62C62.0859 147.553 62.6192 148.92 62.6192 150.72C62.6192 152.52 62.0859 153.893 61.0192 154.84C59.9659 155.773 58.5126 156.24 56.6592 156.24C54.8059 156.24 53.3526 155.773 52.2992 154.84C51.2459 153.907 50.7192 152.533 50.7192 150.72C50.7192 148.907 51.2459 147.533 52.2992 146.6C53.3526 145.667 54.8059 145.2 56.6592 145.2ZM56.6592 147.9C55.3526 147.9 54.6992 148.653 54.6992 150.16V151.3C54.6992 152.793 55.3526 153.54 56.6592 153.54C57.9792 153.54 58.6392 152.793 58.6392 151.3V150.16C58.6392 148.653 57.9792 147.9 56.6592 147.9ZM75.0791 144.2V141.5H79.0591V144.2H75.0791ZM79.0591 156.58C79.0591 157.86 78.7657 158.78 78.1791 159.34C77.6057 159.913 76.6791 160.2 75.3991 160.2C75.0524 160.2 74.6257 160.167 74.1191 160.1C73.6124 160.033 73.2124 159.947 72.9191 159.84V157.46H73.9591C74.7057 157.46 75.0791 157.033 75.0791 156.18V145.44H79.0591V156.58ZM97.4592 145.2C99.3926 145.2 100.866 145.653 101.879 146.56C102.906 147.467 103.419 148.853 103.419 150.72V151.4H95.4992C95.4992 152.16 95.6659 152.733 95.9992 153.12C96.3459 153.507 96.8859 153.7 97.6192 153.7C98.2859 153.7 98.7726 153.56 99.0792 153.28C99.3992 153 99.5592 152.627 99.5592 152.16H103.419C103.419 153.44 102.933 154.44 101.959 155.16C100.986 155.88 99.5659 156.24 97.6992 156.24C95.7392 156.24 94.2192 155.787 93.1392 154.88C92.0592 153.96 91.5192 152.573 91.5192 150.72C91.5192 148.907 92.0459 147.533 93.0992 146.6C94.1526 145.667 95.6059 145.2 97.4592 145.2ZM97.6192 147.74C96.3659 147.74 95.6659 148.333 95.5192 149.52H99.3992C99.3992 148.973 99.2392 148.54 98.9192 148.22C98.6126 147.9 98.1792 147.74 97.6192 147.74ZM122.779 145.44V148.14H120.539V152.16C120.539 152.64 120.619 152.993 120.779 153.22C120.939 153.433 121.232 153.54 121.659 153.54H122.779V155.88C122.459 155.987 122.046 156.073 121.539 156.14C121.032 156.207 120.592 156.24 120.219 156.24C119.046 156.24 118.139 156.027 117.499 155.6C116.872 155.173 116.559 154.447 116.559 153.42V148.14H115.079V145.44H116.719L117.579 142.24H120.539V145.44H122.779ZM140.486 145.2C142.339 145.2 143.792 145.673 144.846 146.62C145.912 147.553 146.446 148.92 146.446 150.72C146.446 152.52 145.912 153.893 144.846 154.84C143.792 155.773 142.339 156.24 140.486 156.24C138.632 156.24 137.179 155.773 136.126 154.84C135.072 153.907 134.546 152.533 134.546 150.72C134.546 148.907 135.072 147.533 136.126 146.6C137.179 145.667 138.632 145.2 140.486 145.2ZM140.486 147.9C139.179 147.9 138.526 148.653 138.526 150.16V151.3C138.526 152.793 139.179 153.54 140.486 153.54C141.806 153.54 142.466 152.793 142.466 151.3V150.16C142.466 148.653 141.806 147.9 140.486 147.9Z" fill="#60855F"/>
<path d="M9.79609 165.16L11.0761 165.12C11.2361 165.12 11.4161 165.113 11.6161 165.1C11.8161 165.087 12.0161 165.073 12.2161 165.06C12.6694 165.02 13.0428 165 13.3361 165L15.0161 165.02C15.3228 165.02 15.4761 165.12 15.4761 165.32V166.32C15.4761 166.44 15.4494 166.513 15.3961 166.54C15.3561 166.553 15.2628 166.56 15.1161 166.56C14.9428 166.56 14.7894 166.553 14.6561 166.54L13.3761 166.52C12.8694 166.52 12.3761 166.547 11.8961 166.6L10.9161 166.66L10.8561 167.02C10.8294 167.313 10.8161 167.547 10.8161 167.72L10.7961 169.5L10.7761 170.52V171C11.0561 171 11.2628 170.993 11.3961 170.98L12.3561 170.96L13.1561 170.94C13.3428 170.927 13.6028 170.92 13.9361 170.92C14.1494 170.92 14.2894 170.947 14.3561 171C14.4361 171.053 14.4761 171.14 14.4761 171.26L14.4561 171.92C14.4561 172.027 14.4228 172.1 14.3561 172.14C14.3028 172.18 14.1828 172.2 13.9961 172.2C13.7561 172.2 13.5561 172.193 13.3961 172.18L12.5961 172.16H10.7361C10.7361 172.507 10.7428 172.76 10.7561 172.92L10.7761 174.18L10.7561 175.16C10.7294 175.587 10.7161 175.913 10.7161 176.14L10.7361 178.5C10.7361 178.673 10.6961 178.793 10.6161 178.86C10.5494 178.927 10.4361 178.96 10.2761 178.96C10.2094 178.96 10.0561 178.947 9.81609 178.92C9.69609 178.907 9.44943 178.9 9.07609 178.9L7.61609 178.92C7.46943 178.907 7.37609 178.88 7.33609 178.84C7.30943 178.8 7.29609 178.747 7.29609 178.68C7.29609 178.6 7.29609 178.547 7.29609 178.52L7.27609 177.46C7.27609 177.273 7.26943 177.113 7.25609 176.98L7.23609 175.62C7.23609 175.42 7.24276 175.22 7.25609 175.02C7.28276 174.807 7.29609 174.653 7.29609 174.56C7.33609 174.253 7.35609 173.907 7.35609 173.52L7.33609 171.24L7.35609 169.92C7.38276 169.307 7.39609 168.84 7.39609 168.52C7.39609 167.773 7.38276 166.853 7.35609 165.76C7.35609 165.52 7.38276 165.36 7.43609 165.28C7.50276 165.2 7.59609 165.16 7.71609 165.16C7.79609 165.16 7.87609 165.167 7.95609 165.18C8.04943 165.193 8.15609 165.2 8.27609 165.2L9.79609 165.16ZM18.4678 166.32C18.4011 168.187 18.3678 169.2 18.3678 169.36L18.3478 172.22C18.3478 172.473 18.3545 172.693 18.3678 172.88L18.3878 174.08C18.3878 174.36 18.3811 174.533 18.3678 174.6C18.3545 174.68 18.3478 174.753 18.3478 174.82C18.3611 174.887 18.3678 174.933 18.3678 174.96C18.3678 175.013 18.3745 175.047 18.3878 175.06L18.8678 175.1C19.2945 175.127 19.6478 175.133 19.9278 175.12L23.6278 175.08C23.6278 175.08 24.3278 175.1 25.7278 175.14L26.6678 175.16C26.8145 175.173 26.8878 175.213 26.8878 175.28C26.8878 175.307 26.8811 175.34 26.8678 175.38C26.8545 175.42 26.8478 175.46 26.8478 175.5V176.42C26.8478 176.66 26.8878 177.167 26.9678 177.94L27.0478 178.78L27.0678 178.88C27.0678 178.947 27.0345 178.987 26.9678 179C26.9011 179.027 26.7811 179.04 26.6078 179.04L25.1478 179.02L22.6678 178.98C22.3345 178.98 21.8678 179 21.2678 179.04C21.0011 179.053 20.7011 179.067 20.3678 179.08C20.0478 179.093 19.7278 179.1 19.4078 179.1L19.0678 179.08C18.9878 179.067 18.8345 179.06 18.6078 179.06L17.7078 179.08C17.5478 179.093 17.3411 179.1 17.0878 179.1C16.9145 179.1 16.8078 179.073 16.7678 179.02C16.7411 178.98 16.7278 178.913 16.7278 178.82C16.7411 178.727 16.7478 178.647 16.7478 178.58C16.7478 178.287 16.7678 177.78 16.8078 177.06L16.8678 175L16.8278 174.06C16.8145 173.873 16.8011 173.653 16.7878 173.4C16.7745 173.133 16.7678 172.86 16.7678 172.58C16.7678 173.033 16.8078 172.58 16.8878 171.22C16.9678 169.847 17.0078 169 17.0078 168.68L16.9878 166.42L16.9478 165.14V165.12C16.9478 165.013 17.0211 164.96 17.1678 164.96L17.4478 164.98C17.5145 164.98 17.6011 164.987 17.7078 165C17.8145 165 17.9811 165 18.2078 165H18.3878C18.4678 165 18.5078 165.053 18.5078 165.16L18.4678 166.32ZM35.8298 165.04C36.6298 165.573 37.2698 166.293 37.7498 167.2C38.2432 168.107 38.5832 168.993 38.7698 169.86C38.9698 170.713 39.0698 171.387 39.0698 171.88C39.0698 172.707 38.9365 173.667 38.6698 174.76C38.4165 175.853 37.8632 176.873 37.0098 177.82C36.1565 178.753 34.9232 179.22 33.3098 179.22C31.0965 179.22 29.5232 177.933 28.5898 175.36C28.1765 174.2 27.9432 172.907 27.8898 171.48C27.8898 170.307 28.1365 169.193 28.6298 168.14C29.1232 167.073 29.7698 166.22 30.5698 165.58C31.3832 164.94 32.2165 164.62 33.0698 164.62C33.8432 164.62 34.4165 164.64 34.7898 164.68C35.1765 164.72 35.5232 164.84 35.8298 165.04ZM33.2098 178.1C34.6232 178.1 35.6765 177.513 36.3698 176.34C37.0632 175.153 37.4098 173.667 37.4098 171.88C37.4098 170.787 37.2432 169.78 36.9098 168.86C36.5898 167.927 36.1298 167.187 35.5298 166.64C34.9432 166.08 34.2632 165.8 33.4898 165.8C33.4232 165.8 33.2432 165.8 32.9498 165.8C32.6698 165.8 32.4232 165.847 32.2098 165.94C31.9965 166.033 31.8032 166.173 31.6298 166.36C31.1898 166.8 30.8165 167.207 30.5098 167.58C30.2165 167.94 29.9165 168.48 29.6098 169.2C29.3165 169.92 29.1698 170.753 29.1698 171.7C29.1698 172.82 29.3032 173.867 29.5698 174.84C29.8498 175.8 30.2898 176.587 30.8898 177.2C31.4898 177.8 32.2632 178.1 33.2098 178.1ZM50.0633 178.44C50.2499 178.733 50.3433 178.927 50.3433 179.02C50.3433 179.073 50.3099 179.107 50.2433 179.12C50.1766 179.133 50.1166 179.14 50.0633 179.14C50.0233 179.14 49.9899 179.14 49.9633 179.14L47.7033 179.2C47.5966 179.2 47.5099 179.153 47.4433 179.06C47.3899 178.967 47.3099 178.8 47.2033 178.56C47.1366 178.36 47.0166 178.093 46.8433 177.76C46.5766 177.28 46.1166 176.38 45.4633 175.06L44.4433 173.08L44.5033 174.14L44.6033 175.66C44.6833 177.447 44.7499 178.433 44.8033 178.62C44.8166 178.673 44.8233 178.74 44.8233 178.82C44.8233 179.06 44.6966 179.18 44.4433 179.18C44.3633 179.18 44.2966 179.173 44.2433 179.16C44.0299 179.133 43.5099 179.16 42.6833 179.24C42.1233 179.293 41.7833 179.32 41.6633 179.32C41.4899 179.32 41.3699 179.287 41.3033 179.22C41.2499 179.153 41.2233 179.04 41.2233 178.88L41.2433 178.42L41.2033 177.26C41.1233 175.873 41.0833 174.667 41.0833 173.64C41.0833 173.107 41.1033 172.74 41.1433 172.54C41.2099 172.207 41.2433 171.267 41.2433 169.72C41.2433 168.107 41.2166 166.887 41.1633 166.06C41.1499 165.953 41.1433 165.807 41.1433 165.62C41.1433 165.407 41.1633 165.253 41.2033 165.16C41.2433 165.067 41.2833 165.02 41.3233 165.02C41.3766 165.007 41.4633 165 41.5833 165L42.0233 164.96C42.9433 164.853 43.6766 164.8 44.2233 164.8C45.7166 164.8 46.8366 165.187 47.5833 165.96C48.3433 166.72 48.7233 167.713 48.7233 168.94C48.7233 169.913 48.4099 170.847 47.7833 171.74C47.5166 172.127 47.2099 172.473 46.8633 172.78L48.2633 175.32C49.2899 177.16 49.8899 178.2 50.0633 178.44ZM44.3233 170.42C44.5233 170.42 44.7033 170.38 44.8633 170.3C45.2366 170.127 45.4233 169.773 45.4233 169.24C45.4233 168.853 45.3633 168.567 45.2433 168.38C45.1233 168.193 44.9699 168.1 44.7833 168.1C44.6366 168.1 44.5099 168.153 44.4033 168.26C44.3899 168.273 44.3899 168.367 44.4033 168.54C44.4166 168.713 44.4233 168.887 44.4233 169.06C44.4233 169.207 44.4166 169.313 44.4033 169.38C44.3499 169.607 44.3233 169.84 44.3233 170.08L44.3033 170.26L44.3233 170.42ZM89.8555 168.12C89.5221 168.12 89.1888 168.26 88.8555 168.54C88.5355 168.82 88.2621 169.287 88.0355 169.94C87.8088 170.58 87.6955 171.407 87.6955 172.42C87.6955 173.407 87.8355 174.193 88.1155 174.78C88.4088 175.353 88.7355 175.753 89.0955 175.98C89.4688 176.207 89.7888 176.32 90.0555 176.32C90.2955 176.32 90.5421 176.24 90.7955 176.08C91.0488 175.907 91.2688 175.727 91.4555 175.54C91.4821 175.513 91.5221 175.467 91.5755 175.4C91.6421 175.333 91.7021 175.3 91.7555 175.3C91.8221 175.3 91.9021 175.327 91.9955 175.38L93.6955 176.32C93.7488 176.347 93.8288 176.387 93.9355 176.44C94.0555 176.48 94.1355 176.52 94.1755 176.56C94.2288 176.6 94.2555 176.653 94.2555 176.72C94.2555 176.787 94.2355 176.86 94.1955 176.94C93.9021 177.433 93.4421 177.94 92.8155 178.46C92.1888 178.98 91.3221 179.24 90.2155 179.24C89.3488 179.24 88.5155 178.92 87.7155 178.28C86.9288 177.627 86.2955 176.74 85.8155 175.62C85.3355 174.5 85.0955 173.267 85.0955 171.92C85.0955 170.587 85.3221 169.387 85.7755 168.32C86.2421 167.253 86.8355 166.42 87.5555 165.82C88.2755 165.22 89.0155 164.92 89.7755 164.92C90.7221 164.92 91.4821 165.12 92.0555 165.52C92.6421 165.907 93.0621 166.28 93.3155 166.64C93.3688 166.72 93.4155 166.793 93.4555 166.86C93.5088 166.927 93.5355 166.993 93.5355 167.06C93.5355 167.14 93.4621 167.247 93.3155 167.38C92.7021 167.86 92.2621 168.28 91.9955 168.64C91.8621 168.813 91.7488 168.947 91.6555 169.04C91.5621 169.12 91.4688 169.16 91.3755 169.16C91.2821 169.16 91.1755 169.093 91.0555 168.96C90.7755 168.653 90.5555 168.44 90.3955 168.32C90.2488 168.187 90.0688 168.12 89.8555 168.12ZM96.7819 164.9C96.9552 164.913 97.1219 164.92 97.2819 164.92C97.4552 164.907 97.6019 164.9 97.7219 164.9C98.0152 164.9 98.2285 164.907 98.3619 164.92C98.5219 164.933 98.6352 164.967 98.7019 165.02C98.7685 165.073 98.8019 165.147 98.8019 165.24C98.8019 165.307 98.7952 165.38 98.7819 165.46C98.7685 165.54 98.7552 165.613 98.7419 165.68C98.5952 166.813 98.5152 167.98 98.5019 169.18C98.4885 169.527 98.4819 170.06 98.4819 170.78L98.5019 173.2C98.5152 173.4 98.5219 173.607 98.5219 173.82L98.5419 174.62C98.5685 175.313 98.5819 175.827 98.5819 176.16C98.5819 176.413 98.5752 176.567 98.5619 176.62C98.5485 176.673 98.5419 176.827 98.5419 177.08L98.5619 178.18C98.5752 178.34 98.5819 178.54 98.5819 178.78C98.5952 178.953 98.5419 179.06 98.4219 179.1C98.3152 179.153 98.1685 179.173 97.9819 179.16H96.1619C95.9619 179.173 95.8352 179.127 95.7819 179.02C95.7285 178.927 95.6952 178.767 95.6819 178.54C95.6552 178.447 95.6685 178.2 95.7219 177.8C95.7752 177.427 95.8019 177.107 95.8019 176.84C95.8019 176.747 95.8485 175.847 95.9419 174.14C96.0219 172.887 96.0619 172.2 96.0619 172.08L96.1019 170.12L96.1419 168.3L96.1819 167.22L96.2219 166.5V165.66C96.2219 165.14 96.3552 164.88 96.6219 164.88C96.6885 164.88 96.7419 164.887 96.7819 164.9ZM108.545 166.72C109.332 167.413 109.852 168.24 110.105 169.2C110.358 170.147 110.485 171.193 110.485 172.34C110.485 172.94 110.385 173.613 110.185 174.36C109.985 175.107 109.705 175.8 109.345 176.44C108.998 177.08 108.592 177.553 108.125 177.86C107.485 178.273 106.692 178.567 105.745 178.74C104.798 178.9 104.052 178.98 103.505 178.98H101.465C101.318 178.98 101.225 178.947 101.185 178.88C101.145 178.813 101.145 178.74 101.185 178.66C101.198 178.62 101.205 178.567 101.205 178.5C101.205 178.447 101.198 178.38 101.185 178.3C101.185 178.207 101.185 178.08 101.185 177.92C101.185 177.48 101.178 177.047 101.165 176.62L101.125 173L101.145 168.98C101.145 168.633 101.138 168.3 101.125 167.98C101.112 167.647 101.098 167.36 101.085 167.12L101.045 165.86C101.058 165.553 101.078 165.34 101.105 165.22C101.132 165.1 101.185 165.04 101.265 165.04H101.325C101.378 165.04 101.438 165.053 101.505 165.08C101.572 165.093 101.632 165.1 101.685 165.1C101.792 165.1 101.918 165.093 102.065 165.08C102.225 165.067 102.385 165.06 102.545 165.06L103.325 165.08C104.072 165.08 104.745 165.113 105.345 165.18C105.398 165.18 105.572 165.193 105.865 165.22C106.172 165.247 106.558 165.387 107.025 165.64C107.505 165.893 108.012 166.253 108.545 166.72ZM104.485 178.22C105.405 178.273 106.245 178.107 107.005 177.72C107.738 177.347 108.345 176.727 108.825 175.86C109.305 174.993 109.545 173.82 109.545 172.34C109.545 170.873 109.305 169.7 108.825 168.82C108.358 167.927 107.765 167.26 107.045 166.82C106.312 166.38 105.478 166.153 104.545 166.14L104.465 167.96C104.425 168.613 104.405 169.513 104.405 170.66C104.405 170.767 104.425 171.36 104.465 172.44C104.505 172.893 104.525 173.32 104.525 173.72L104.505 176.3C104.492 176.7 104.485 177.34 104.485 178.22ZM121.071 178.72C121.111 178.813 121.131 178.88 121.131 178.92C121.131 178.973 121.058 179 120.911 179H119.791C119.738 179 119.691 178.993 119.651 178.98C119.624 178.953 119.598 178.9 119.571 178.82C119.518 178.673 119.444 178.433 119.351 178.1C119.231 177.767 119.151 177.467 119.111 177.2C119.071 177 119.004 176.76 118.911 176.48C118.831 176.2 118.758 175.987 118.691 175.84C118.571 175.587 118.464 175.3 118.371 174.98L118.191 174.4C118.124 174.253 118.071 174.167 118.031 174.14C118.004 174.1 117.951 174.08 117.871 174.08C117.591 174.08 117.384 174.087 117.251 174.1L116.391 174.14C116.284 174.153 115.791 174.16 114.911 174.16H113.691H113.651C113.571 174.16 113.511 174.233 113.471 174.38L113.431 174.58L113.351 174.96C113.324 175.027 113.238 175.413 113.091 176.12C113.051 176.347 112.984 176.64 112.891 177C112.864 177.267 112.804 177.487 112.711 177.66C112.684 177.7 112.651 177.793 112.611 177.94C112.571 178.087 112.538 178.207 112.511 178.3C112.471 178.407 112.424 178.58 112.371 178.82C112.358 178.833 112.344 178.867 112.331 178.92C112.318 178.96 112.298 178.987 112.271 179C112.244 179 112.204 179 112.151 179H111.751C111.631 179 111.598 178.913 111.651 178.74C111.651 178.7 111.658 178.667 111.671 178.64C111.671 178.613 111.678 178.58 111.691 178.54C111.704 178.5 111.724 178.44 111.751 178.36L111.931 177.62C111.958 177.54 112.004 177.4 112.071 177.2C112.138 177 112.184 176.813 112.211 176.64C112.278 176.32 112.404 175.833 112.591 175.18L112.751 174.62C113.004 173.793 113.164 173.213 113.231 172.88L113.511 171.82C113.644 171.38 113.724 171.1 113.751 170.98C113.844 170.58 113.978 170.08 114.151 169.48L114.291 168.92L114.411 168.5C114.544 168.047 114.658 167.72 114.751 167.52C114.778 167.44 114.871 167.167 115.031 166.7C115.204 166.22 115.318 165.84 115.371 165.56C115.464 165.24 115.558 165 115.651 164.84C115.758 164.68 115.898 164.6 116.071 164.6C116.138 164.6 116.204 164.66 116.271 164.78C116.338 164.9 116.404 165.047 116.471 165.22C116.538 165.393 116.584 165.52 116.611 165.6C116.718 165.853 116.904 166.487 117.171 167.5L117.331 168.06C117.344 168.167 117.564 168.82 117.991 170.02L118.371 171.12L118.731 172.06C119.104 173.113 119.344 173.753 119.451 173.98C119.918 175.393 120.191 176.247 120.271 176.54C120.364 176.887 120.511 177.32 120.711 177.84C120.924 178.36 121.044 178.653 121.071 178.72ZM117.331 172.78C117.504 172.78 117.591 172.733 117.591 172.64C117.591 172.573 117.544 172.427 117.451 172.2C117.371 172 117.251 171.627 117.091 171.08C116.971 170.64 116.851 170.26 116.731 169.94C116.598 169.54 116.451 169.067 116.291 168.52C116.144 167.973 116.058 167.62 116.031 167.46C115.831 166.753 115.698 166.4 115.631 166.4C115.591 166.4 115.524 166.58 115.431 166.94L115.311 167.38C115.218 167.74 115.098 168.193 114.951 168.74C114.804 169.273 114.671 169.727 114.551 170.1C114.471 170.447 114.358 170.887 114.211 171.42C114.078 171.94 113.971 172.3 113.891 172.5C113.864 172.58 113.851 172.627 113.851 172.64C113.851 172.733 113.891 172.793 113.971 172.82C114.064 172.847 114.151 172.86 114.231 172.86C114.324 172.847 114.384 172.84 114.411 172.84L115.571 172.8C115.731 172.773 115.958 172.76 116.251 172.76L117.331 172.78ZM126.128 165C126.941 165 127.808 165.22 128.728 165.66C129.648 166.087 130.454 166.873 131.148 168.02C131.841 169.167 132.188 170.727 132.188 172.7C132.188 174.5 131.754 175.867 130.888 176.8C130.034 177.72 129.134 178.313 128.188 178.58C127.241 178.833 126.454 178.96 125.828 178.96L124.188 178.98C123.894 178.993 123.534 179 123.108 179C122.854 179 122.728 178.773 122.728 178.32L122.748 177.8L122.708 176.8L122.688 175.9L122.668 175.3C122.614 174.607 122.588 173.82 122.588 172.94C122.588 172.42 122.614 171.733 122.668 170.88C122.721 170.027 122.748 169.327 122.748 168.78L122.728 166.1C122.714 165.887 122.708 165.647 122.708 165.38C122.708 165.233 122.801 165.147 122.988 165.12C123.188 165.08 123.394 165.067 123.608 165.08C123.821 165.08 123.968 165.08 124.048 165.08L124.768 165.04C125.328 165.013 125.781 165 126.128 165ZM126.168 174.72C126.528 174.547 126.861 174.307 127.168 174C127.834 173.36 128.168 172.6 128.168 171.72C128.168 170.88 127.848 170.207 127.208 169.7C126.928 169.487 126.614 169.327 126.268 169.22C126.294 169.513 126.308 169.74 126.308 169.9C126.308 170.153 126.294 170.52 126.268 171C126.241 171.453 126.228 171.787 126.228 172C126.228 172.347 126.214 172.907 126.188 173.68C126.174 173.907 126.168 174.253 126.168 174.72ZM142.531 165.92C142.531 166.227 142.504 166.38 142.451 166.38C142.371 166.38 142.277 166.373 142.171 166.36C142.077 166.333 141.957 166.32 141.811 166.32H138.611L136.131 166.3C136.051 166.3 135.751 166.32 135.231 166.36L134.771 166.4L134.731 166.94C134.717 167.14 134.711 167.453 134.711 167.88C134.711 168.093 134.724 168.373 134.751 168.72C134.777 169.04 134.791 169.273 134.791 169.42V170.22C134.791 170.433 134.797 170.6 134.811 170.72C134.931 170.733 135.111 170.74 135.351 170.74H136.151C136.231 170.74 136.391 170.727 136.631 170.7C136.977 170.673 137.277 170.66 137.531 170.66C137.637 170.66 138.011 170.68 138.651 170.72L139.091 170.74C139.197 170.74 139.351 170.733 139.551 170.72C139.751 170.693 139.944 170.68 140.131 170.68L140.791 170.7C141.137 170.727 141.377 170.74 141.511 170.74C141.657 170.74 141.757 170.733 141.811 170.72L141.931 170.7C142.024 170.7 142.091 170.733 142.131 170.8C142.171 170.853 142.184 170.907 142.171 170.96C142.157 171.053 142.151 171.173 142.151 171.32C142.151 171.453 142.144 171.573 142.131 171.68C142.117 171.787 142.097 171.853 142.071 171.88C142.044 171.893 141.964 171.9 141.831 171.9L141.031 171.82C140.031 171.727 139.377 171.68 139.071 171.68C137.937 171.68 137.104 171.7 136.571 171.74C136.357 171.767 136.124 171.78 135.871 171.78C135.617 171.78 135.457 171.78 135.391 171.78C135.137 171.78 134.951 171.773 134.831 171.76L134.771 172.08C134.744 172.32 134.731 172.533 134.731 172.72C134.731 172.88 134.744 173.067 134.771 173.28C134.797 173.493 134.811 173.68 134.811 173.84L134.831 176.22L134.811 177.22C134.797 177.34 134.791 177.507 134.791 177.72C134.964 177.733 135.217 177.74 135.551 177.74C135.831 177.753 136.264 177.76 136.851 177.76L137.931 177.78C138.157 177.793 138.504 177.8 138.971 177.8C139.251 177.8 139.617 177.787 140.071 177.76L140.911 177.74C141.231 177.74 141.497 177.747 141.711 177.76C141.924 177.773 142.084 177.78 142.191 177.78C142.297 177.78 142.357 177.8 142.371 177.84C142.397 177.88 142.411 177.967 142.411 178.1C142.411 178.193 142.404 178.293 142.391 178.4C142.377 178.493 142.371 178.6 142.371 178.72C142.371 178.813 142.337 178.88 142.271 178.92C142.204 178.947 142.097 178.96 141.951 178.96C141.804 178.96 141.684 178.953 141.591 178.94C141.231 178.9 140.504 178.88 139.411 178.88C138.744 178.88 138.264 178.887 137.971 178.9C137.744 178.913 137.371 178.92 136.851 178.92L134.991 178.9C134.777 178.887 134.524 178.88 134.231 178.88C134.044 178.88 133.917 178.86 133.851 178.82C133.797 178.767 133.771 178.687 133.771 178.58L133.791 178.26C133.804 178.207 133.811 178.147 133.811 178.08C133.811 178.04 133.804 177.947 133.791 177.8C133.777 177.64 133.771 177.353 133.771 176.94C133.771 176.54 133.757 175.887 133.731 174.98C133.691 174.233 133.671 173.513 133.671 172.82C133.671 172.527 133.704 171.68 133.771 170.28C133.784 170 133.797 169.72 133.811 169.44C133.824 169.16 133.831 168.907 133.831 168.68C133.831 167.133 133.811 166.113 133.771 165.62C133.731 165.3 133.924 165.14 134.351 165.14C134.457 165.14 134.631 165.153 134.871 165.18C135.084 165.207 135.244 165.22 135.351 165.22L136.611 165.18C137.517 165.127 138.217 165.1 138.711 165.1C139.284 165.1 140.091 165.113 141.131 165.14C141.464 165.153 141.817 165.16 142.191 165.16C142.351 165.16 142.451 165.2 142.491 165.28C142.531 165.36 142.544 165.447 142.531 165.54C142.531 165.62 142.531 165.673 142.531 165.7V165.92Z" fill="#E37B41"/>
<path d="M65.5569 166.72C66.3435 167.413 66.8635 168.24 67.1169 169.2C67.3702 170.147 67.4969 171.193 67.4969 172.34C67.4969 172.94 67.3969 173.613 67.1969 174.36C66.9969 175.107 66.7169 175.8 66.3569 176.44C66.0102 177.08 65.6035 177.553 65.1369 177.86C64.4969 178.273 63.7035 178.567 62.7569 178.74C61.8102 178.9 61.0635 178.98 60.5169 178.98H58.4769C58.3302 178.98 58.2369 178.947 58.1969 178.88C58.1569 178.813 58.1569 178.74 58.1969 178.66C58.2102 178.62 58.2169 178.567 58.2169 178.5C58.2169 178.447 58.2102 178.38 58.1969 178.3C58.1969 178.207 58.1969 178.08 58.1969 177.92C58.1969 177.48 58.1902 177.047 58.1769 176.62L58.1369 173L58.1569 168.98C58.1569 168.633 58.1502 168.3 58.1369 167.98C58.1235 167.647 58.1102 167.36 58.0969 167.12L58.0569 165.86C58.0702 165.553 58.0902 165.34 58.1169 165.22C58.1435 165.1 58.1969 165.04 58.2769 165.04H58.3369C58.3902 165.04 58.4502 165.053 58.5169 165.08C58.5835 165.093 58.6435 165.1 58.6969 165.1C58.8035 165.1 58.9302 165.093 59.0769 165.08C59.2369 165.067 59.3969 165.06 59.5569 165.06L60.3369 165.08C61.0835 165.08 61.7569 165.113 62.3569 165.18C62.4102 165.18 62.5835 165.193 62.8769 165.22C63.1835 165.247 63.5702 165.387 64.0369 165.64C64.5169 165.893 65.0235 166.253 65.5569 166.72ZM61.4969 178.22C62.4169 178.273 63.2569 178.107 64.0169 177.72C64.7502 177.347 65.3569 176.727 65.8369 175.86C66.3169 174.993 66.5569 173.82 66.5569 172.34C66.5569 170.873 66.3169 169.7 65.8369 168.82C65.3702 167.927 64.7769 167.26 64.0569 166.82C63.3235 166.38 62.4902 166.153 61.5569 166.14L61.4769 167.96C61.4369 168.613 61.4169 169.513 61.4169 170.66C61.4169 170.767 61.4369 171.36 61.4769 172.44C61.5169 172.893 61.5369 173.32 61.5369 173.72L61.5169 176.3C61.5035 176.7 61.4969 177.34 61.4969 178.22ZM78.0827 178.72C78.1227 178.813 78.1427 178.88 78.1427 178.92C78.1427 178.973 78.0693 179 77.9227 179H76.8027C76.7493 179 76.7027 178.993 76.6627 178.98C76.636 178.953 76.6093 178.9 76.5827 178.82C76.5293 178.673 76.456 178.433 76.3627 178.1C76.2427 177.767 76.1627 177.467 76.1227 177.2C76.0827 177 76.016 176.76 75.9227 176.48C75.8427 176.2 75.7693 175.987 75.7027 175.84C75.5827 175.587 75.476 175.3 75.3827 174.98L75.2027 174.4C75.136 174.253 75.0827 174.167 75.0427 174.14C75.016 174.1 74.9627 174.08 74.8827 174.08C74.6027 174.08 74.396 174.087 74.2627 174.1L73.4027 174.14C73.296 174.153 72.8027 174.16 71.9227 174.16H70.7027H70.6627C70.5827 174.16 70.5227 174.233 70.4827 174.38L70.4427 174.58L70.3627 174.96C70.336 175.027 70.2493 175.413 70.1027 176.12C70.0627 176.347 69.996 176.64 69.9027 177C69.876 177.267 69.816 177.487 69.7227 177.66C69.696 177.7 69.6627 177.793 69.6227 177.94C69.5827 178.087 69.5493 178.207 69.5227 178.3C69.4827 178.407 69.436 178.58 69.3827 178.82C69.3693 178.833 69.356 178.867 69.3427 178.92C69.3293 178.96 69.3093 178.987 69.2827 179C69.256 179 69.216 179 69.1627 179H68.7627C68.6427 179 68.6093 178.913 68.6627 178.74C68.6627 178.7 68.6693 178.667 68.6827 178.64C68.6827 178.613 68.6893 178.58 68.7027 178.54C68.716 178.5 68.736 178.44 68.7627 178.36L68.9427 177.62C68.9693 177.54 69.016 177.4 69.0827 177.2C69.1493 177 69.196 176.813 69.2227 176.64C69.2893 176.32 69.416 175.833 69.6027 175.18L69.7627 174.62C70.016 173.793 70.176 173.213 70.2427 172.88L70.5227 171.82C70.656 171.38 70.736 171.1 70.7627 170.98C70.856 170.58 70.9893 170.08 71.1627 169.48L71.3027 168.92L71.4227 168.5C71.556 168.047 71.6693 167.72 71.7627 167.52C71.7893 167.44 71.8827 167.167 72.0427 166.7C72.216 166.22 72.3293 165.84 72.3827 165.56C72.476 165.24 72.5693 165 72.6627 164.84C72.7693 164.68 72.9093 164.6 73.0827 164.6C73.1493 164.6 73.216 164.66 73.2827 164.78C73.3493 164.9 73.416 165.047 73.4827 165.22C73.5493 165.393 73.596 165.52 73.6227 165.6C73.7293 165.853 73.916 166.487 74.1827 167.5L74.3427 168.06C74.356 168.167 74.576 168.82 75.0027 170.02L75.3827 171.12L75.7427 172.06C76.116 173.113 76.356 173.753 76.4627 173.98C76.9293 175.393 77.2027 176.247 77.2827 176.54C77.376 176.887 77.5227 177.32 77.7227 177.84C77.936 178.36 78.056 178.653 78.0827 178.72ZM74.3427 172.78C74.516 172.78 74.6027 172.733 74.6027 172.64C74.6027 172.573 74.556 172.427 74.4627 172.2C74.3827 172 74.2627 171.627 74.1027 171.08C73.9827 170.64 73.8627 170.26 73.7427 169.94C73.6093 169.54 73.4627 169.067 73.3027 168.52C73.156 167.973 73.0693 167.62 73.0427 167.46C72.8427 166.753 72.7093 166.4 72.6427 166.4C72.6027 166.4 72.536 166.58 72.4427 166.94L72.3227 167.38C72.2293 167.74 72.1093 168.193 71.9627 168.74C71.816 169.273 71.6827 169.727 71.5627 170.1C71.4827 170.447 71.3693 170.887 71.2227 171.42C71.0893 171.94 70.9827 172.3 70.9027 172.5C70.876 172.58 70.8627 172.627 70.8627 172.64C70.8627 172.733 70.9027 172.793 70.9827 172.82C71.076 172.847 71.1627 172.86 71.2427 172.86C71.336 172.847 71.396 172.84 71.4227 172.84L72.5827 172.8C72.7427 172.773 72.9693 172.76 73.2627 172.76L74.3427 172.78Z" fill="#405D42"/>
<defs>
<clipPath id="clip0_491_277">
<rect width="113" height="120" fill="white" transform="translate(16)"/>
</clipPath>
</defs>
</svg>